<svg xmlns="http://www.w3.org/2000/svg" aria-hidden="true" style="position:absolute;width:0;height:0;overflow:hidden">
  <defs>
    <symbol id="icon-facebook" viewBox="0 0 19 32">
      <path d="m16.542 18.4.817-5.367h-5.192v-3.5c0-1.517.7-2.917 3.033-2.917h2.392V2.008s-2.158-.408-4.2-.408c-4.258 0-7.058 2.625-7.058 7.292v4.142H1.551v5.367h4.783v13.067h5.833V18.401h4.375z"/>
    </symbol>
    <symbol id="icon-linkedin" viewBox="0 0 32 32">
      <path d="M7.654 32V11.875h-6.26V32h6.26zM4.49 9.183c2.019 0 3.635-1.683 3.635-3.702 0-1.952-1.615-3.567-3.635-3.567-1.952 0-3.567 1.615-3.567 3.567 0 2.019 1.615 3.702 3.567 3.702zM31.01 32h.067V20.962c0-5.385-1.212-9.558-7.538-9.558-3.029 0-5.048 1.683-5.923 3.231h-.067v-2.76h-5.99V32h6.26v-9.962c0-2.625.471-5.115 3.702-5.115s3.298 2.962 3.298 5.317V32h6.192z"/>
    </symbol>
    <symbol id="icon-twitter" viewBox="0 0 37 32">
      <path d="M33.469 7.75c1.458-1.094 2.771-2.406 3.792-3.938-1.313.583-2.844 1.021-4.375 1.167C34.49 4.031 35.657 2.573 36.24.75a16.177 16.177 0 0 1-4.812 1.896A7.657 7.657 0 0 0 25.813.24a7.655 7.655 0 0 0-7.656 7.656c0 .583.073 1.167.219 1.75A22.215 22.215 0 0 1 2.553 1.625C1.897 2.719 1.532 4.031 1.532 5.49a7.536 7.536 0 0 0 3.427 6.344c-1.24-.073-2.479-.365-3.5-.948v.073c0 3.719 2.625 6.781 6.125 7.51-.583.146-1.313.292-1.969.292-.51 0-.948-.073-1.458-.146.948 3.063 3.792 5.25 7.146 5.323-2.625 2.042-5.906 3.281-9.479 3.281-.656 0-1.24-.073-1.823-.146 3.354 2.188 7.365 3.427 11.74 3.427 14.073 0 21.729-11.594 21.729-21.729V7.75z"/>
    </symbol>
    <symbol id="icon-cart" viewBox="0 0 32 32">
      <path d="M4.905 3.765H0V0h8.271l.845 7.529h21.002v11.178L7.096 23.283 4.906 3.764zM29.176 32a2.824 2.824 0 1 1 0-5.648 2.824 2.824 0 0 1 0 5.648zm-18.823 0a2.824 2.824 0 1 1 0-5.648 2.824 2.824 0 0 1 0 5.648z"/>
    </symbol>
  </defs>
</svg>
