<svg xmlns="http://www.w3.org/2000/svg" aria-hidden="true" style="position:absolute;width:0;height:0;overflow:hidden">
  <defs>
    <symbol id="icon-facebook" viewBox="0 0 19 32">
      <path d="m16.542 18.4.817-5.367h-5.192v-3.5c0-1.517.7-2.917 3.033-2.917h2.392V2.008s-2.158-.408-4.2-.408c-4.258 0-7.058 2.625-7.058 7.292v4.142H1.551v5.367h4.783v13.067h5.833V18.401h4.375z"/>
    </symbol>
    <symbol id="icon-linkedin" viewBox="0 0 32 32">
      <path d="M7.654 32V11.875h-6.26V32h6.26zM4.49 9.183c2.019 0 3.635-1.683 3.635-3.702 0-1.952-1.615-3.567-3.635-3.567-1.952 0-3.567 1.615-3.567 3.567 0 2.019 1.615 3.702 3.567 3.702zM31.01 32h.067V20.962c0-5.385-1.212-9.558-7.538-9.558-3.029 0-5.048 1.683-5.923 3.231h-.067v-2.76h-5.99V32h6.26v-9.962c0-2.625.471-5.115 3.702-5.115s3.298 2.962 3.298 5.317V32h6.192z"/>
    </symbol>
    <symbol id="icon-twitter" viewBox="0 0 37 32">
      <path d="M33.469 7.75c1.458-1.094 2.771-2.406 3.792-3.938-1.313.583-2.844 1.021-4.375 1.167C34.49 4.031 35.657 2.573 36.24.75a16.177 16.177 0 0 1-4.812 1.896A7.657 7.657 0 0 0 25.813.24a7.655 7.655 0 0 0-7.656 7.656c0 .583.073 1.167.219 1.75A22.215 22.215 0 0 1 2.553 1.625C1.897 2.719 1.532 4.031 1.532 5.49a7.536 7.536 0 0 0 3.427 6.344c-1.24-.073-2.479-.365-3.5-.948v.073c0 3.719 2.625 6.781 6.125 7.51-.583.146-1.313.292-1.969.292-.51 0-.948-.073-1.458-.146.948 3.063 3.792 5.25 7.146 5.323-2.625 2.042-5.906 3.281-9.479 3.281-.656 0-1.24-.073-1.823-.146 3.354 2.188 7.365 3.427 11.74 3.427 14.073 0 21.729-11.594 21.729-21.729V7.75z"/>
    </symbol>
    <symbol id="icon-cart" viewBox="0 0 32 32">
      <path d="M4.905 3.765H0V0h8.271l.845 7.529h21.002v11.178L7.096 23.283 4.906 3.764zM29.176 32a2.824 2.824 0 1 1 0-5.648 2.824 2.824 0 0 1 0 5.648zm-18.823 0a2.824 2.824 0 1 1 0-5.648 2.824 2.824 0 0 1 0 5.648z"/>
    </symbol>
    <symbol id="icon-instagram" viewBox="0 0 30 32">
      <path d="M15.111 8.191c-4.222 0-7.587 3.431-7.587 7.587a7.547 7.547 0 0 0 7.587 7.587c4.156 0 7.587-3.365 7.587-7.587 0-4.156-3.431-7.587-7.587-7.587zm0 12.535a4.941 4.941 0 0 1-4.948-4.948c0-2.705 2.177-4.882 4.948-4.882a4.87 4.87 0 0 1 4.882 4.882c0 2.771-2.177 4.948-4.882 4.948zm9.632-12.799c0-.99-.792-1.781-1.781-1.781s-1.781.792-1.781 1.781.792 1.781 1.781 1.781c.99 0 1.781-.792 1.781-1.781zm5.014 1.781c-.132-2.375-.66-4.486-2.375-6.201s-3.826-2.243-6.201-2.375C18.74 1 11.417 1 8.976 1.132c-2.375.132-4.42.66-6.201 2.375C1.06 5.222.532 7.333.4 9.708c-.132 2.441-.132 9.764 0 12.205.132 2.375.66 4.42 2.375 6.201 1.781 1.715 3.826 2.243 6.201 2.375 2.441.132 9.764.132 12.205 0 2.375-.132 4.486-.66 6.201-2.375 1.715-1.781 2.243-3.826 2.375-6.201.132-2.441.132-9.764 0-12.205zM26.59 24.486c-.462 1.319-1.517 2.309-2.771 2.837-1.979.792-6.597.594-8.708.594-2.177 0-6.795.198-8.708-.594a5.003 5.003 0 0 1-2.837-2.837c-.792-1.913-.594-6.531-.594-8.708 0-2.111-.198-6.729.594-8.708a5.09 5.09 0 0 1 2.837-2.771c1.913-.792 6.531-.594 8.708-.594 2.111 0 6.729-.198 8.708.594 1.253.462 2.243 1.517 2.771 2.771.792 1.979.594 6.597.594 8.708 0 2.177.198 6.795-.594 8.708z"/>
    </symbol>
    <symbol id="icon-rating" viewBox="0 0 192 32">
      <path stroke-width="1.6" d="M176 31.2c8.395 0 15.2-6.805 15.2-15.2S184.395.8 176 .8 160.8 7.605 160.8 16s6.805 15.2 15.2 15.2z"/>
      <path d="M176 32a16.002 16.002 0 0 1-14.782-22.123A16.002 16.002 0 0 1 176 0v32zM136 32c8.836 0 16-7.164 16-16s-7.164-16-16-16-16 7.163-16 16c0 8.836 7.164 16 16 16zM96 32c8.836 0 16-7.164 16-16S104.836 0 96 0 80 7.163 80 16c0 8.836 7.164 16 16 16zM56 32c8.836 0 16-7.164 16-16S64.836 0 56 0 40 7.163 40 16c0 8.836 7.164 16 16 16zM16 32c8.836 0 16-7.164 16-16S24.836 0 16 0C7.163 0 0 7.163 0 16s7.163 16 16 16z"/>
    </symbol>
  </defs>
</svg>
